<?xml version="1.0" encoding="utf-8"?>
<!-- Generator: Adobe Illustrator 22.1.0, SVG Export Plug-In . SVG Version: 6.00 Build 0)  -->
<svg version="1.1" id="Layer_1" xmlns="http://www.w3.org/2000/svg" xmlns:xlink="http://www.w3.org/1999/xlink" x="0px" y="0px"
	 viewBox="0 0 468.8 399.7" style="enable-background:new 0 0 468.8 399.7;" xml:space="preserve">
<style type="text/css">
	.st0{fill:url(#SVGID_1_);}
	.st1{fill:#FFFFFF;}
	.st2{fill:#FFA500;}
	.st3{fill:#9366B4;}
	.st4{fill:#4B0082;}
</style>
<g>
	
		<linearGradient id="SVGID_1_" gradientUnits="userSpaceOnUse" x1="345.75" y1="-67.2" x2="345.75" y2="143.6" gradientTransform="matrix(1 0 0 -1 0 148)">
		<stop  offset="0" style="stop-color:#FFA500"/>
		<stop  offset="1" style="stop-color:#4B0082"/>
	</linearGradient>
	<path class="st0" d="M251.5,165.8c-13.4,0-24.3-10.9-24.3-24.3V28.7c0-13.4,10.9-24.3,24.3-24.3H440c13.4,0,24.3,10.9,24.3,24.3
		v112.9c0,13.4-10.9,24.3-24.3,24.3H320.6L265,215.2v-49.3L251.5,165.8L251.5,165.8z"/>
	<g>
		<path class="st1" d="M440,0H251.5c-15.9,0-28.8,12.9-28.8,28.8v112.9c0,15.9,12.9,28.8,28.8,28.8h8.9v44.8c0,1.8,1,3.4,2.7,4.1
			c0.6,0.2,1.3,0.5,1.8,0.5c1.1,0,2.2-0.3,3.1-1.1l54.3-48.2H440c15.9,0,28.8-12.9,28.8-28.8v-23.5c0-2.5-2.1-4.6-4.6-4.6
			s-4.6,2.1-4.6,4.6v23.5c0,10.9-8.8,19.7-19.7,19.7H320.6c-1.1,0-2.2,0.5-3.1,1.1l-48,42.6V166c0-2.5-2.1-4.6-4.6-4.6h-13.5
			c-10.9,0-19.7-8.8-19.7-19.7v-113c0-10.9,8.8-19.7,19.7-19.7H440c10.9,0,19.7,8.8,19.7,19.7v23.1c0,2.5,2.1,4.6,4.6,4.6
			s4.6-2.1,4.6-4.6V28.7C468.8,12.9,455.9,0,440,0L440,0z"/>
		<path class="st1" d="M464.2,63.9c-2.5,0-4.6,2.1-4.6,4.6v32c0,2.5,2.1,4.6,4.6,4.6s4.6-2.1,4.6-4.6v-32
			C468.8,65.9,466.7,63.9,464.2,63.9z"/>
	</g>
	<circle class="st1" cx="345.8" cy="88.5" r="15.5"/>
	<circle class="st1" cx="284" cy="88.5" r="15.5"/>
	<circle class="st1" cx="407.5" cy="88.5" r="15.5"/>
</g>
<g>
	<path class="st2" d="M218.7,396.2H76c-25.6,0-46.7-21-46.7-46.7v-70.1c0-25.6,21-46.7,46.7-46.7h142.7c25.6,0,46.7,21,46.7,46.7
		v70.1C265.4,375.2,244.4,396.2,218.7,396.2z"/>
	<path class="st3" d="M218.7,232.8H76c-25.6,0-46.7,21-46.7,46.7v10.2c0-25.6,21-46.7,46.7-46.7h142.7c25.6,0,46.7,21,46.7,46.7
		v-10.2C265.4,253.8,244.4,232.8,218.7,232.8z"/>
	<path class="st4" d="M76,372.9c-12.9,0-23.4-10.4-23.4-23.4v-70.1C52.6,266.5,63,256,76,256h142.7c12.9,0,23.4,10.4,23.4,23.4v70.1
		c0,12.9-10.4,23.4-23.4,23.4H76z"/>
	<path class="st4" d="M29.4,287.7v51.8c-14.4,0-25.9-11.6-25.9-25.9S15,287.7,29.4,287.7z"/>
	<path class="st4" d="M291.3,313.6c0,14.4-11.6,25.9-25.9,25.9v-51.8C279.8,287.7,291.3,299.2,291.3,313.6z"/>
	<path class="st4" d="M147.3,206.9c-14.4,0-25.9,11.6-25.9,25.9h51.8C173.3,218.5,161.7,206.9,147.3,206.9z"/>
	<circle class="st4" cx="147.3" cy="164" r="12"/>
	<path class="st1" d="M100,287.2c-8,0-14.6,6.5-14.6,14.6s6.5,14.6,14.6,14.6s14.6-6.5,14.6-14.6S108.1,287.2,100,287.2L100,287.2z"
		/>
	<circle class="st1" cx="194.7" cy="301.7" r="14.6"/>
	<path class="st1" d="M159.5,333c-0.2,0.3-4.4,5.5-12.1,5.5c-7.8,0-11.8-5.2-12.1-5.4c-1.1-1.5-3.2-1.9-4.8-0.8
		c-1.5,1.1-1.9,3.2-0.8,4.8c0.3,0.3,6.1,8.2,17.6,8.2c11.2,0,17.2-7.8,17.5-8.2c1.1-1.5,0.8-3.6-0.7-4.8
		C162.7,331.2,160.6,331.6,159.5,333L159.5,333z"/>
	<path class="st1" d="M268.8,284.5v-4.9c0-27.6-22.5-50.1-50.1-50.1h-42.2c-1.5-13.4-12.2-24.1-25.7-25.7V179
		c6.9-1.5,12-7.6,12-14.9c0-8.5-6.9-15.4-15.4-15.4S132,155.5,132,164c0,7.3,5.2,13.4,12,14.9v24.7c-13.4,1.5-24.1,12.2-25.7,25.7
		H76c-27.6,0-50.1,22.5-50.1,50.1v4.9C11.3,286.2,0,298.6,0,313.6s11.4,27.4,25.9,29.1v6.9c0,27.6,22.5,50.1,50.1,50.1h142.7
		c27.6,0,50.1-22.5,50.1-50.1v-6.9c14.6-1.7,25.9-14.1,25.9-29.1C294.7,298.6,283.3,286.2,268.8,284.5z M138.8,164
		c0-4.8,3.8-8.6,8.6-8.6s8.6,3.8,8.6,8.6s-3.8,8.6-8.6,8.6S138.8,168.8,138.8,164z M147.3,210.3c11.3,0,20.6,8.3,22.3,19.1h-44.5
		C126.7,218.6,136.1,210.3,147.3,210.3L147.3,210.3z M6.8,313.6c0-11.3,8.3-20.6,19.1-22.3v44.5C15.1,334.2,6.8,324.8,6.8,313.6z
		 M262,349.6c0,23.9-19.4,43.3-43.3,43.3H76c-23.9,0-43.3-19.4-43.3-43.3v-10.1v-51.8v-8.2c0-23.9,19.4-43.3,43.3-43.3h45.4h51.8
		h45.4c23.9,0,43.3,19.4,43.3,43.3v8.2v51.8v10.1H262z M268.8,335.8v-44.5c10.8,1.6,19.1,11,19.1,22.3
		C287.9,324.8,279.6,334.2,268.8,335.8z"/>
</g>
</svg>
