<?xml version="1.0" encoding="utf-8"?>
<!-- Generator: Adobe Illustrator 22.1.0, SVG Export Plug-In . SVG Version: 6.00 Build 0)  -->
<svg version="1.1" id="Capa_1" xmlns="http://www.w3.org/2000/svg" xmlns:xlink="http://www.w3.org/1999/xlink" x="0px" y="0px"
	 viewBox="0 0 512 512" style="enable-background:new 0 0 512 512;" xml:space="preserve">
<style type="text/css">
	.st0{fill:url(#SVGID_1_);}
	.st1{fill:#FFFFFF;}
</style>
<linearGradient id="SVGID_1_" gradientUnits="userSpaceOnUse" x1="256" y1="766" x2="256" y2="254" gradientTransform="matrix(1 0 0 1 0 -254)">
	<stop  offset="0" style="stop-color:#FFA500"/>
	<stop  offset="1" style="stop-color:#4B0082"/>
</linearGradient>
<path class="st0" d="M512,256c0,141.4-114.6,256-256,256S0,397.4,0,256S114.6,0,256,0S512,114.6,512,256z"/>
<g>
	<path class="st1" d="M305.4,362.5c0,5.2-4.2,9.4-9.4,9.4H165.1c-5.2,0-9.4-4.2-9.4-9.4V149.5c0-5.2,4.2-9.4,9.4-9.4h130.9
		c5.2,0,9.4,4.2,9.4,9.4v44.9h24.7v-44.9c0-18.8-15.3-34.1-34.1-34.1H165.1c-18.8,0-34.1,15.3-34.1,34.1v213
		c0,18.8,15.3,34.1,34.1,34.1h130.9c18.8,0,34.1-15.3,34.1-34.1v-44.9h-24.7L305.4,362.5L305.4,362.5z"/>
	<path class="st1" d="M359.7,202.6l-17.5,17.5l23.5,23.5H227.1v24.7h138.4l-23.5,23.5l17.5,17.5L413,256L359.7,202.6z"/>
</g>
</svg>
